<svg
  class="icon icon--social"
  viewBox="0 0 24 24"
  width="24"
  height="24"
  fill="currentColor"
  aria-hidden="true"
  focusable="false"
>
  <circle cx="12" cy="12" r="12" />
  <path
    fill="#d74824"
    d="M12 5.5a6.5 6.5 0 0 0-2.05 12.67c.32.06.44-.14.44-.31v-1.1c-1.81.4-2.19-.87-2.19-.87a1.72 1.72 0 0 0-.72-.95c-.59-.4.04-.4.04-.4a1.37 1.37 0 0 1 1 .67 1.39 1.39 0 0 0 1.9.54 1.4 1.4 0 0 1 .41-.87c-1.44-.16-2.96-.72-2.96-3.21a2.51 2.51 0 0 1 .67-1.74 2.34 2.34 0 0 1 .06-1.72s.55-.17 1.79.67a6.18 6.18 0 0 1 3.26 0c1.24-.84 1.79-.67 1.79-.67a2.34 2.34 0 0 1 .07 1.72 2.5 2.5 0 0 1 .67 1.74c0 2.5-1.53 3.05-2.98 3.2a1.56 1.56 0 0 1 .45 1.21v1.8c0 .17.12.38.45.31A6.5 6.5 0 0 0 12 5.5z"
  />
</svg>
