<svg
  class="icon icon--social"
  viewBox="0 0 24 24"
  width="24"
  height="24"
  fill="currentColor"
  aria-hidden="true"
  focusable="false"
>
  <circle cx="12" cy="12" r="12" />
  <path
    fill="#d74824"
    d="M13.07 13.79l-2.61 2.6c-.4.41-.65 0-.65 0L8.36 14.9 5.5 17.77l-.59.06.61-2.79-1.41-1.4s-.4-.25 0-.66l2.61-2.6a3.5 3.5 0 0 1 .9-3.42 3.42 3.42 0 0 1 2.43-1l1.06-1.05s-.43-.69.16-1.27c.58-.59 4.92-1.42 5.45-.89s-.31 4.87-.9 5.46c-.58.58-1.27.16-1.27.16l-1.06 1.05a3.42 3.42 0 0 1-1 2.42 3.5 3.5 0 0 1-3.41.9z"
  />
</svg>
